<svg viewBox="997.5 -433 108.5 723" xmlns="http://www.w3.org/2000/svg" width="312" height="291" fill="none"><path stroke="#8C8E92" stroke-opacity=".72" stroke-width="1.2" d="M1069.84-433H1106v36.15M1069.84-433v36.15m0-36.15h-36.16m36.16 36.15H1106m-36.16 0v36.15m0-36.15h-36.16m72.32 0v36.15m-36.16 0H1106m-36.16 0v36.15m0-36.15h-36.16m72.32 0v36.15m-36.16 0H1106m-36.16 0v36.15m0-36.15h-36.16m72.32 0v36.15m-36.16 0H1106m-36.16 0v36.15m0-36.15h-36.16m72.32 0v36.15m-36.16 0H1106m-36.16 0v36.15m0-36.15h-36.16m72.32 0v36.15m-36.16 0H1106m-36.16 0v36.15m0-36.15h-36.16m72.32 0v36.15m-36.16 0H1106m-36.16 0v36.15m0-36.15h-36.16m72.32 0v36.15m-36.16 0H1106m-36.16 0v36.15m0-36.15h-36.16m72.32 0v36.15m-36.16 0H1106m-36.16 0v36.15m0-36.15h-36.16m72.32 0v36.15m-36.16 0H1106m-36.16 0v36.15m0-36.15h-36.16m72.32 0v36.15m-36.16 0H1106m-36.16 0V.8m0-36.15h-36.16m72.32 0V.8m-36.16 0H1106m-36.16 0v36.15m0-36.15h-36.16m72.32 0v36.15m-36.16 0H1106m-36.16 0V73.1m0-36.15h-36.16m72.32 0V73.1m-36.16 0H1106m-36.16 0v36.15m0-36.15h-36.16m72.32 0v36.15m-36.16 0H1106m-36.16 0v36.15m0-36.15h-36.16m72.32 0v36.15m-36.16 0H1106m-36.16 0v36.15m0-36.15h-36.16m72.32 0v36.15m-36.16 0H1106m-36.16 0v36.15m0-36.15h-36.16m72.32 0v36.15m-36.16 0H1106m-36.16 0v36.15m0-36.15h-36.16m72.32 0v36.15m-36.16 0H1106m-36.16 0V290m0-36.15h-36.16m72.32 0V290h-36.16m0 0h-36.16m0-723v36.15m0-36.15h-36.157m36.157 36.15v36.15m0-36.15h-36.157m36.157 36.15v36.15m0-36.15h-36.157m36.157 36.15v36.15m0-36.15h-36.157m36.157 36.15v36.15m0-36.15h-36.157m36.157 36.15v36.15m0-36.15h-36.157m36.157 36.15v36.15m0-36.15h-36.157m36.157 36.15v36.15m0-36.15h-36.157m36.157 36.15v36.15m0-36.15h-36.157m36.157 36.15v36.15m0-36.15h-36.157m36.157 36.15v36.15m0-36.15h-36.157m36.157 36.15V.8m0-36.15h-36.157M1033.68.8v36.15m0-36.15h-36.157m36.157 36.15V73.1m0-36.15h-36.157m36.157 36.15v36.15m0-36.15h-36.157m36.157 36.15v36.15m0-36.15h-36.157m36.157 36.15v36.15m0-36.15h-36.157m36.157 36.15v36.15m0-36.15h-36.157m36.157 36.15v36.15m0-36.15h-36.157m36.157 36.15V290m0-36.15h-36.157M1033.68 290h-36.157m0-723v36.15m0-36.15h-36.159m36.159 36.15v36.15m0-36.15h-36.159m36.159 36.15v36.15m0-36.15h-36.159m36.159 36.15v36.15m0-36.15h-36.159m36.159 36.15v36.15m0-36.15h-36.159m36.159 36.15v36.15m0-36.15h-36.159m36.159 36.15v36.15m0-36.15h-36.159m36.159 36.15v36.15m0-36.15h-36.159m36.159 36.15v36.15m0-36.15h-36.159m36.159 36.15v36.15m0-36.15h-36.159m36.159 36.15v36.15m0-36.15h-36.159m36.159 36.15V.8m0-36.15h-36.159M997.523.8v36.15m0-36.15h-36.159m36.159 36.15V73.1m0-36.15h-36.159m36.159 36.15v36.15m0-36.15h-36.159m36.159 36.15v36.15m0-36.15h-36.159m36.159 36.15v36.15m0-36.15h-36.159m36.159 36.15v36.15m0-36.15h-36.159m36.159 36.15v36.15m0-36.15h-36.159m36.159 36.15V290m0-36.15h-36.159M997.523 290h-36.159m0-723v36.15m0-36.15h-36.159m36.159 36.15v36.15m0-36.15h-36.159m36.159 36.15v36.15m0-36.15h-36.159m36.159 36.15v36.15m0-36.15h-36.159m36.159 36.15v36.15m0-36.15h-36.159m36.159 36.15v36.15m0-36.15h-36.159m36.159 36.15v36.15m0-36.15h-36.159m36.159 36.15v36.15m0-36.15h-36.159m36.159 36.15v36.15m0-36.15h-36.159m36.159 36.15v36.15m0-36.15h-36.159m36.159 36.15v36.15m0-36.15h-36.159m36.159 36.15V.8m0-36.15h-36.159M961.364.8v36.15m0-36.15h-36.159m36.159 36.15V73.1m0-36.15h-36.159m36.159 36.15v36.15m0-36.15h-36.159m36.159 36.15v36.15m0-36.15h-36.159m36.159 36.15v36.15m0-36.15h-36.159m36.159 36.15v36.15m0-36.15h-36.159m36.159 36.15v36.15m0-36.15h-36.159m36.159 36.15V290m0-36.15h-36.159M961.364 290h-36.159m0-723v36.15m0-36.15h-36.16m36.16 36.15v36.15m0-36.15h-36.16m36.16 36.15v36.15m0-36.15h-36.16m36.16 36.15v36.15m0-36.15h-36.16m36.16 36.15v36.15m0-36.15h-36.16m36.16 36.15v36.15m0-36.15h-36.16m36.16 36.15v36.15m0-36.15h-36.16m36.16 36.15v36.15m0-36.15h-36.16m36.16 36.15v36.15m0-36.15h-36.16m36.16 36.15v36.15m0-36.15h-36.16m36.16 36.15v36.15m0-36.15h-36.16m36.16 36.15V.8m0-36.15h-36.16M925.205.8v36.15m0-36.15h-36.16m36.16 36.15V73.1m0-36.15h-36.16m36.16 36.15v36.15m0-36.15h-36.16m36.16 36.15v36.15m0-36.15h-36.16m36.16 36.15v36.15m0-36.15h-36.16m36.16 36.15v36.15m0-36.15h-36.16m36.16 36.15v36.15m0-36.15h-36.159m36.159 36.15V290m0-36.15h-36.159M925.205 290h-36.159m-.001-723v36.15m0-36.15h-36.159m36.159 36.15v36.15m0-36.15h-36.159m36.159 36.15v36.15m0-36.15h-36.159m36.159 36.15v36.15m0-36.15h-36.159m36.159 36.15v36.15m0-36.15h-36.159m36.159 36.15v36.15m0-36.15h-36.159m36.159 36.15v36.15m0-36.15h-36.159m36.159 36.15v36.15m0-36.15h-36.159m36.159 36.15v36.15m0-36.15h-36.159m36.159 36.15v36.15m0-36.15h-36.159m36.159 36.15v36.15m0-36.15h-36.159m36.159 36.15V.8m0-36.15h-36.159M889.045.8v36.15m0-36.15h-36.159m36.159 36.15V73.1m0-36.15h-36.159m36.159 36.15v36.15m0-36.15h-36.159m36.159 36.15v36.15m0-36.15h-36.159m36.159 36.15v36.15m0-36.15h-36.159m36.159 36.15.001 36.15m-.001-36.15h-36.159m36.16 36.15v36.15m0-36.15h-36.16m36.16 36.15V290m0-36.15h-36.16m36.16 36.15h-36.16m0-723v36.15m0-36.15h-36.159m36.159 36.15v36.15m0-36.15h-36.159m36.159 36.15v36.15m0-36.15h-36.159m36.159 36.15v36.15m0-36.15h-36.159m36.159 36.15v36.15m0-36.15h-36.159m36.159 36.15v36.15m0-36.15h-36.159m36.159 36.15v36.15m0-36.15h-36.159m36.159 36.15v36.15m0-36.15h-36.159m36.159 36.15v36.15m0-36.15h-36.159m36.159 36.15v36.15m0-36.15h-36.159m36.159 36.15v36.15m0-36.15h-36.159m36.159 36.15V.8m0-36.15h-36.159M852.886.8v36.15m0-36.15h-36.159m36.159 36.15V73.1m0-36.15h-36.159m36.159 36.15v36.15m0-36.15h-36.159m36.159 36.15v36.15m0-36.15h-36.159m36.159 36.15v36.15m0-36.15h-36.159m36.159 36.15v36.15m0-36.15h-36.159m36.159 36.15v36.15m0-36.15h-36.159m36.159 36.15V290m0-36.15h-36.159M852.886 290h-36.159m0-723v36.15m0-36.15h-36.159m36.159 36.15v36.15m0-36.15h-36.159m36.159 36.15v36.15m0-36.15h-36.159m36.159 36.15v36.15m0-36.15h-36.159m36.159 36.15v36.15m0-36.15h-36.159m36.159 36.15v36.15m0-36.15h-36.159m36.159 36.15v36.15m0-36.15h-36.159m36.159 36.15v36.15m0-36.15h-36.159m36.159 36.15v36.15m0-36.15h-36.159m36.159 36.15v36.15m0-36.15h-36.159m36.159 36.15v36.15m0-36.15h-36.159m36.159 36.15V.8m0-36.15h-36.159M816.727.8v36.15m0-36.15h-36.159m36.159 36.15V73.1m0-36.15h-36.159m36.159 36.15v36.15m0-36.15h-36.159m36.159 36.15v36.15m0-36.15h-36.159m36.159 36.15v36.15m0-36.15h-36.159m36.159 36.15v36.15m0-36.15h-36.159m36.159 36.15v36.15m0-36.15h-36.159m36.159 36.15V290m0-36.15h-36.159M816.727 290h-36.159m0-723v36.15m0-36.15h-36.159m36.159 36.15v36.15m0-36.15h-36.159m36.159 36.15v36.15m0-36.15h-36.159m36.159 36.15v36.15m0-36.15h-36.159m36.159 36.15v36.15m0-36.15h-36.159m36.159 36.15v36.15m0-36.15h-36.159m36.159 36.15v36.15m0-36.15h-36.159m36.159 36.15v36.15m0-36.15h-36.159m36.159 36.15v36.15m0-36.15h-36.159m36.159 36.15v36.15m0-36.15h-36.159m36.159 36.15v36.15m0-36.15h-36.159m36.159 36.15V.8m0-36.15h-36.159M780.568.8v36.15m0-36.15h-36.159m36.159 36.15V73.1m0-36.15h-36.159m36.159 36.15v36.15m0-36.15h-36.159m36.159 36.15v36.15m0-36.15h-36.159m36.159 36.15v36.15m0-36.15h-36.159m36.159 36.15v36.15m0-36.15h-36.159m36.159 36.15v36.15m0-36.15h-36.159m36.159 36.15V290m0-36.15h-36.159M780.568 290h-36.159m0-723v36.15m0-36.15H708.25m36.159 36.15v36.15m0-36.15H708.25m36.159 36.15v36.15m0-36.15H708.25m36.159 36.15v36.15m0-36.15H708.25m36.159 36.15v36.15m0-36.15H708.25m36.159 36.15v36.15m0-36.15H708.25m36.159 36.15v36.15m0-36.15H708.25m36.159 36.15v36.15m0-36.15H708.25m36.159 36.15v36.15m0-36.15H708.25m36.159 36.15v36.15m0-36.15H708.25m36.159 36.15v36.15m0-36.15H708.25m36.159 36.15V.8m0-36.15H708.25M744.409.8v36.15m0-36.15H708.25m36.159 36.15V73.1m0-36.15H708.25m36.159 36.15v36.15m0-36.15H708.25m36.159 36.15v36.15m0-36.15H708.25m36.159 36.15v36.15m0-36.15H708.25m36.159 36.15v36.15m0-36.15H708.25m36.159 36.15v36.15m0-36.15H708.25m36.159 36.15V290m0-36.15H708.25M744.409 290H708.25m0-723v36.15m0-36.15h-36.159m36.159 36.15v36.15m0-36.15h-36.159m36.159 36.15v36.15m0-36.15h-36.159m36.159 36.15v36.15m0-36.15h-36.159m36.159 36.15v36.15m0-36.15h-36.159m36.159 36.15v36.15m0-36.15h-36.159m36.159 36.15v36.15m0-36.15h-36.159m36.159 36.15v36.15m0-36.15h-36.159m36.159 36.15v36.15m0-36.15h-36.159m36.159 36.15v36.15m0-36.15h-36.159M708.25-71.5v36.15m0-36.15h-36.159m36.159 36.15V.8m0-36.15h-36.159M708.25.8v36.15m0-36.15h-36.159m36.159 36.15V73.1m0-36.15h-36.159M708.25 73.1v36.15m0-36.15h-36.159m36.159 36.15v36.15m0-36.15h-36.159m36.159 36.15v36.15m0-36.15h-36.159m36.159 36.15v36.15m0-36.15h-36.159m36.159 36.15v36.15m0-36.15h-36.159m36.159 36.15V290m0-36.15h-36.159M708.25 290h-36.159m0-723v36.15m0-36.15h-36.159m36.159 36.15v36.15m0-36.15h-36.159m36.159 36.15v36.15m0-36.15h-36.159m36.159 36.15v36.15m0-36.15h-36.159m36.159 36.15v36.15m0-36.15h-36.159m36.159 36.15v36.15m0-36.15h-36.159m36.159 36.15v36.15m0-36.15h-36.159m36.159 36.15v36.15m0-36.15h-36.159m36.159 36.15v36.15m0-36.15h-36.159m36.159 36.15v36.15m0-36.15h-36.159m36.159 36.15v36.15m0-36.15h-36.159m36.159 36.15V.8m0-36.15h-36.159M672.091.8v36.15m0-36.15h-36.159m36.159 36.15V73.1m0-36.15h-36.159m36.159 36.15v36.15m0-36.15h-36.159m36.159 36.15v36.15m0-36.15h-36.159m36.159 36.15v36.15m0-36.15h-36.159m36.159 36.15v36.15m0-36.15h-36.159m36.159 36.15v36.15m0-36.15h-36.159m36.159 36.15V290m0-36.15h-36.159M672.091 290h-36.159m0-723v36.15m0-36.15h-36.159m36.159 36.15v36.15m0-36.15h-36.159m36.159 36.15v36.15m0-36.15h-36.159m36.159 36.15v36.15m0-36.15h-36.159m36.159 36.15v36.15m0-36.15h-36.159m36.159 36.15v36.15m0-36.15h-36.159m36.159 36.15v36.15m0-36.15h-36.159m36.159 36.15v36.15m0-36.15h-36.159m36.159 36.15v36.15m0-36.15h-36.159m36.159 36.15v36.15m0-36.15h-36.159m36.159 36.15v36.15m0-36.15h-36.159m36.159 36.15V.8m0-36.15h-36.159M635.932.8v36.15m0-36.15h-36.159m36.159 36.15V73.1m0-36.15h-36.159m36.159 36.15v36.15m0-36.15h-36.159m36.159 36.15v36.15m0-36.15h-36.159m36.159 36.15v36.15m0-36.15h-36.159m36.159 36.15v36.15m0-36.15h-36.159m36.159 36.15v36.15m0-36.15h-36.159m36.159 36.15V290m0-36.15h-36.159M635.932 290h-36.159m0-723v36.15m0-36.15h-36.159m36.159 36.15v36.15m0-36.15h-36.159m36.159 36.15v36.15m0-36.15h-36.159m36.159 36.15v36.15m0-36.15h-36.159m36.159 36.15v36.15m0-36.15h-36.159m36.159 36.15v36.15m0-36.15h-36.159m36.159 36.15v36.15m0-36.15h-36.159m36.159 36.15v36.15m0-36.15h-36.159m36.159 36.15v36.15m0-36.15h-36.159m36.159 36.15v36.15m0-36.15h-36.159m36.159 36.15v36.15m0-36.15h-36.159m36.159 36.15V.8m0-36.15h-36.159M599.773.8v36.15m0-36.15h-36.159m36.159 36.15V73.1m0-36.15h-36.159m36.159 36.15v36.15m0-36.15h-36.159m36.159 36.15v36.15m0-36.15h-36.159m36.159 36.15v36.15m0-36.15h-36.159m36.159 36.15v36.15m0-36.15h-36.159m36.159 36.15v36.15m0-36.15h-36.159m36.159 36.15V290m0-36.15h-36.159M599.773 290h-36.159m0-723v36.15m0-36.15h-36.159m36.159 36.15v36.15m0-36.15h-36.159m36.159 36.15v36.15m0-36.15h-36.159m36.159 36.15v36.15m0-36.15h-36.159m36.159 36.15v36.15m0-36.15h-36.159m36.159 36.15v36.15m0-36.15h-36.159m36.159 36.15v36.15m0-36.15h-36.159m36.159 36.15v36.15m0-36.15h-36.159m36.159 36.15v36.15m0-36.15h-36.159m36.159 36.15v36.15m0-36.15h-36.159m36.159 36.15v36.15m0-36.15h-36.159m36.159 36.15V.8m0-36.15h-36.159M563.614.8v36.15m0-36.15h-36.159m36.159 36.15V73.1m0-36.15h-36.159m36.159 36.15v36.15m0-36.15h-36.159m36.159 36.15v36.15m0-36.15h-36.159m36.159 36.15v36.15m0-36.15h-36.159m36.159 36.15v36.15m0-36.15h-36.159m36.159 36.15v36.15m0-36.15h-36.159m36.159 36.15V290m0-36.15h-36.159M563.614 290h-36.159m0-723v36.15m0-36.15h-36.16m36.16 36.15v36.15m0-36.15h-36.16m36.16 36.15v36.15m0-36.15h-36.16m36.16 36.15v36.15m0-36.15h-36.16m36.16 36.15v36.15m0-36.15h-36.16m36.16 36.15v36.15m0-36.15h-36.16m36.16 36.15v36.15m0-36.15h-36.16m36.16 36.15v36.15m0-36.15h-36.16m36.16 36.15v36.15m0-36.15h-36.16m36.16 36.15v36.15m0-36.15h-36.16m36.16 36.15v36.15m0-36.15h-36.16m36.16 36.15V.8m0-36.15h-36.16M527.455.8v36.15m0-36.15h-36.16m36.16 36.15V73.1m0-36.15h-36.16m36.16 36.15v36.15m0-36.15h-36.16m36.16 36.15v36.15m0-36.15h-36.16m36.16 36.15v36.15m0-36.15h-36.16m36.16 36.15v36.15m0-36.15h-36.16m36.16 36.15v36.15m0-36.15h-36.16m36.16 36.15V290m0-36.15h-36.16m36.16 36.15h-36.16m0-723v36.15m0-36.15h-36.159m36.159 36.15v36.15m0-36.15h-36.159m36.159 36.15v36.15m0-36.15h-36.159m36.159 36.15v36.15m0-36.15h-36.159m36.159 36.15v36.15m0-36.15h-36.159m36.159 36.15v36.15m0-36.15h-36.159m36.159 36.15v36.15m0-36.15h-36.159m36.159 36.15v36.15m0-36.15h-36.159m36.159 36.15v36.15m0-36.15h-36.159m36.159 36.15v36.15m0-36.15h-36.159m36.159 36.15v36.15m0-36.15h-36.159m36.159 36.15V.8m0-36.15h-36.159M491.295.8v36.15m0-36.15h-36.159m36.159 36.15V73.1m0-36.15h-36.159m36.159 36.15v36.15m0-36.15h-36.159m36.159 36.15v36.15m0-36.15h-36.159m36.159 36.15v36.15m0-36.15h-36.159m36.159 36.15v36.15m0-36.15h-36.159m36.159 36.15v36.15m0-36.15h-36.159m36.159 36.15V290m0-36.15h-36.159M491.295 290h-36.159m0-723v36.15m0-36.15h-36.159m36.159 36.15v36.15m0-36.15h-36.159m36.159 36.15v36.15m0-36.15h-36.159m36.159 36.15v36.15m0-36.15h-36.159m36.159 36.15v36.15m0-36.15h-36.159m36.159 36.15v36.15m0-36.15h-36.159m36.159 36.15v36.15m0-36.15h-36.159m36.159 36.15v36.15m0-36.15h-36.159m36.159 36.15v36.15m0-36.15h-36.159m36.159 36.15v36.15m0-36.15h-36.159m36.159 36.15v36.15m0-36.15h-36.159m36.159 36.15V.8m0-36.15h-36.159M455.136.8v36.15m0-36.15h-36.159m36.159 36.15V73.1m0-36.15h-36.159m36.159 36.15v36.15m0-36.15h-36.159m36.159 36.15v36.15m0-36.15h-36.159m36.159 36.15v36.15m0-36.15h-36.159m36.159 36.15v36.15m0-36.15h-36.159m36.159 36.15v36.15m0-36.15h-36.159m36.159 36.15V290m0-36.15h-36.159M455.136 290h-36.159m0-723v36.15m0-36.15h-36.159m36.159 36.15v36.15m0-36.15h-36.159m36.159 36.15v36.15m0-36.15h-36.159m36.159 36.15v36.15m0-36.15h-36.159m36.159 36.15v36.15m0-36.15h-36.159m36.159 36.15v36.15m0-36.15h-36.159m36.159 36.15v36.15m0-36.15h-36.159m36.159 36.15v36.15m0-36.15h-36.159m36.159 36.15v36.15m0-36.15h-36.159m36.159 36.15v36.15m0-36.15h-36.159m36.159 36.15v36.15m0-36.15h-36.159m36.159 36.15V.8m0-36.15h-36.159M418.977.8v36.15m0-36.15h-36.159m36.159 36.15V73.1m0-36.15h-36.159m36.159 36.15v36.15m0-36.15h-36.159m36.159 36.15v36.15m0-36.15h-36.159m36.159 36.15v36.15m0-36.15h-36.159m36.159 36.15v36.15m0-36.15h-36.159m36.159 36.15v36.15m0-36.15h-36.159m36.159 36.15V290m0-36.15h-36.159M418.977 290h-36.159m0-723v36.15m0-36.15h-36.159m36.159 36.15v36.15m0-36.15h-36.159m36.159 36.15v36.15m0-36.15h-36.159m36.159 36.15v36.15m0-36.15h-36.159m36.159 36.15v36.15m0-36.15h-36.159m36.159 36.15v36.15m0-36.15h-36.159m36.159 36.15v36.15m0-36.15h-36.159m36.159 36.15v36.15m0-36.15h-36.159m36.159 36.15v36.15m0-36.15h-36.159m36.159 36.15v36.15m0-36.15h-36.159m36.159 36.15v36.15m0-36.15h-36.159m36.159 36.15V.8m0-36.15h-36.159M382.818.8v36.15m0-36.15h-36.159m36.159 36.15V73.1m0-36.15h-36.159m36.159 36.15v36.15m0-36.15h-36.159m36.159 36.15v36.15m0-36.15h-36.159m36.159 36.15v36.15m0-36.15h-36.159m36.159 36.15v36.15m0-36.15h-36.159m36.159 36.15v36.15m0-36.15h-36.159m36.159 36.15V290m0-36.15h-36.159M382.818 290h-36.159m0-723v36.15m0-36.15H310.5m36.159 36.15v36.15m0-36.15H310.5m36.159 36.15v36.15m0-36.15H310.5m36.159 36.15v36.15m0-36.15H310.5m36.159 36.15v36.15m0-36.15H310.5m36.159 36.15v36.15m0-36.15H310.5m36.159 36.15v36.15m0-36.15H310.5m36.159 36.15v36.15m0-36.15H310.5m36.159 36.15v36.15m0-36.15H310.5m36.159 36.15v36.15m0-36.15H310.5m36.159 36.15v36.15m0-36.15H310.5m36.159 36.15V.8m0-36.15H310.5M346.659.8v36.15m0-36.15H310.5m36.159 36.15V73.1m0-36.15H310.5m36.159 36.15v36.15m0-36.15H310.5m36.159 36.15v36.15m0-36.15H310.5m36.159 36.15v36.15m0-36.15H310.5m36.159 36.15v36.15m0-36.15H310.5m36.159 36.15v36.15m0-36.15H310.5m36.159 36.15V290m0-36.15H310.5M346.659 290H310.5m0-723v36.15m0-36.15h-36.159m36.159 36.15v36.15m0-36.15h-36.159M310.5-360.7v36.15m0-36.15h-36.159m36.159 36.15v36.15m0-36.15h-36.159M310.5-288.4v36.15m0-36.15h-36.159m36.159 36.15v36.15m0-36.15h-36.159M310.5-216.1v36.15m0-36.15h-36.159m36.159 36.15v36.15m0-36.15h-36.159M310.5-143.8v36.15m0-36.15h-36.159m36.159 36.15v36.15m0-36.15h-36.159M310.5-71.5v36.15m0-36.15h-36.159M310.5-35.35V.8m0-36.15h-36.159M310.5.8v36.15m0-36.15h-36.159M310.5 36.95V73.1m0-36.15h-36.159M310.5 73.1v36.15m0-36.15h-36.159m36.159 36.15v36.15m0-36.15h-36.159M310.5 145.4v36.15m0-36.15h-36.159m36.159 36.15v36.15m0-36.15h-36.159M310.5 217.7v36.15m0-36.15h-36.159m36.159 36.15V290m0-36.15h-36.159M310.5 290h-36.159m0-723v36.15m0-36.15h-36.159m36.159 36.15v36.15m0-36.15h-36.159m36.159 36.15v36.15m0-36.15h-36.159m36.159 36.15v36.15m0-36.15h-36.159m36.159 36.15v36.15m0-36.15h-36.159m36.159 36.15v36.15m0-36.15h-36.159m36.159 36.15v36.15m0-36.15h-36.159m36.159 36.15v36.15m0-36.15h-36.159m36.159 36.15v36.15m0-36.15h-36.159m36.159 36.15v36.15m0-36.15h-36.159m36.159 36.15v36.15m0-36.15h-36.159m36.159 36.15V.8m0-36.15h-36.159M274.341.8v36.15m0-36.15h-36.159m36.159 36.15V73.1m0-36.15h-36.159m36.159 36.15v36.15m0-36.15h-36.159m36.159 36.15v36.15m0-36.15h-36.159m36.159 36.15v36.15m0-36.15h-36.159m36.159 36.15v36.15m0-36.15h-36.159m36.159 36.15v36.15m0-36.15h-36.159m36.159 36.15V290m0-36.15h-36.159M274.341 290h-36.159m0-723v36.15m0-36.15h-36.159m36.159 36.15v36.15m0-36.15h-36.159m36.159 36.15v36.15m0-36.15h-36.159m36.159 36.15v36.15m0-36.15h-36.159m36.159 36.15v36.15m0-36.15h-36.159m36.159 36.15v36.15m0-36.15h-36.159m36.159 36.15v36.15m0-36.15h-36.159m36.159 36.15v36.15m0-36.15h-36.159m36.159 36.15v36.15m0-36.15h-36.159m36.159 36.15v36.15m0-36.15h-36.159m36.159 36.15v36.15m0-36.15h-36.159m36.159 36.15V.8m0-36.15h-36.159M238.182.8v36.15m0-36.15h-36.159m36.159 36.15V73.1m0-36.15h-36.159m36.159 36.15v36.15m0-36.15h-36.159m36.159 36.15v36.15m0-36.15h-36.159m36.159 36.15v36.15m0-36.15h-36.159m36.159 36.15v36.15m0-36.15h-36.159m36.159 36.15v36.15m0-36.15h-36.159m36.159 36.15V290m0-36.15h-36.159M238.182 290h-36.159m0-723v36.15m0-36.15h-36.159m36.159 36.15v36.15m0-36.15h-36.159m36.159 36.15v36.15m0-36.15h-36.159m36.159 36.15v36.15m0-36.15h-36.159m36.159 36.15v36.15m0-36.15h-36.159m36.159 36.15v36.15m0-36.15h-36.159m36.159 36.15v36.15m0-36.15h-36.159m36.159 36.15v36.15m0-36.15h-36.159m36.159 36.15v36.15m0-36.15h-36.159m36.159 36.15v36.15m0-36.15h-36.159m36.159 36.15v36.15m0-36.15h-36.159m36.159 36.15V.8m0-36.15h-36.159M202.023.8v36.15m0-36.15h-36.159m36.159 36.15V73.1m0-36.15h-36.159m36.159 36.15v36.15m0-36.15h-36.159m36.159 36.15v36.15m0-36.15h-36.159m36.159 36.15v36.15m0-36.15h-36.159m36.159 36.15v36.15m0-36.15h-36.159m36.159 36.15v36.15m0-36.15h-36.159m36.159 36.15V290m0-36.15h-36.159M202.023 290h-36.159m0-723v36.15m0-36.15h-36.159m36.159 36.15v36.15m0-36.15h-36.159m36.159 36.15v36.15m0-36.15h-36.159m36.159 36.15v36.15m0-36.15h-36.159m36.159 36.15v36.15m0-36.15h-36.159m36.159 36.15v36.15m0-36.15h-36.159m36.159 36.15v36.15m0-36.15h-36.159m36.159 36.15v36.15m0-36.15h-36.159m36.159 36.15v36.15m0-36.15h-36.159m36.159 36.15v36.15m0-36.15h-36.159m36.159 36.15v36.15m0-36.15h-36.159m36.159 36.15V.8m0-36.15h-36.159M165.864.8v36.15m0-36.15h-36.159m36.159 36.15V73.1m0-36.15h-36.159m36.159 36.15v36.15m0-36.15h-36.159m36.159 36.15v36.15m0-36.15h-36.159m36.159 36.15v36.15m0-36.15h-36.159m36.159 36.15v36.15m0-36.15h-36.159m36.159 36.15v36.15m0-36.15h-36.159m36.159 36.15V290m0-36.15h-36.159M165.864 290h-36.159m0-723v36.15m0-36.15h-36.16m36.16 36.15v36.15m0-36.15h-36.16m36.16 36.15v36.15m0-36.15h-36.16m36.16 36.15v36.15m0-36.15h-36.16m36.16 36.15v36.15m0-36.15h-36.16m36.16 36.15v36.15m0-36.15h-36.16m36.16 36.15v36.15m0-36.15h-36.16m36.16 36.15v36.15m0-36.15h-36.16m36.16 36.15v36.15m0-36.15h-36.16m36.16 36.15v36.15m0-36.15h-36.16m36.16 36.15v36.15m0-36.15h-36.16m36.16 36.15V.8m0-36.15h-36.16M129.706.8v36.15m0-36.15h-36.16m36.16 36.15V73.1m0-36.15h-36.16m36.16 36.15v36.15m0-36.15h-36.16m36.16 36.15v36.15m0-36.15h-36.16m36.16 36.15v36.15m0-36.15h-36.16m36.16 36.15v36.15m0-36.15h-36.16m36.16 36.15v36.15m0-36.15h-36.16m36.16 36.15V290m0-36.15h-36.16m36.16 36.15h-36.16m0-723v36.15m0-36.15H57.387m36.16 36.15v36.15m0-36.15h-36.16m36.16 36.15v36.15m0-36.15h-36.16m36.16 36.15v36.15m0-36.15h-36.16m36.16 36.15v36.15m0-36.15h-36.16m36.16 36.15v36.15m0-36.15h-36.16m36.16 36.15v36.15m0-36.15h-36.16m36.16 36.15v36.15m0-36.15h-36.16m36.16 36.15v36.15m0-36.15h-36.16m36.16 36.15v36.15m0-36.15h-36.16m36.16 36.15v36.15m0-36.15h-36.16m36.16 36.15V.8m0-36.15h-36.16M93.546.8v36.15m0-36.15h-36.16m36.16 36.15V73.1m0-36.15h-36.16m36.16 36.15v36.15m0-36.15h-36.16m36.16 36.15v36.15m0-36.15h-36.16m36.16 36.15v36.15m0-36.15h-36.16m36.16 36.15v36.15m0-36.15h-36.16m36.16 36.15v36.15m0-36.15h-36.16m36.16 36.15V290m0-36.15h-36.16M93.546 290h-36.16m0-723v36.15m0-36.15H21.227m36.16 36.15v36.15m0-36.15h-36.16m36.16 36.15v36.15m0-36.15h-36.16m36.16 36.15v36.15m0-36.15h-36.16m36.16 36.15v36.15m0-36.15h-36.16m36.16 36.15v36.15m0-36.15h-36.16m36.16 36.15v36.15m0-36.15h-36.16m36.16 36.15v36.15m0-36.15h-36.16m36.16 36.15v36.15m0-36.15h-36.16m36.16 36.15v36.15m0-36.15h-36.16m36.16 36.15v36.15m0-36.15h-36.16m36.16 36.15V.8m0-36.15h-36.16M57.387.8v36.15m0-36.15h-36.16m36.16 36.15V73.1m0-36.15h-36.16m36.16 36.15v36.15m0-36.15h-36.16m36.16 36.15v36.15m0-36.15h-36.16m36.16 36.15v36.15m0-36.15h-36.16m36.16 36.15v36.15m0-36.15h-36.16m36.16 36.15v36.15m0-36.15h-36.16m36.16 36.15V290m0-36.15h-36.16M57.387 290h-36.16m0-723v36.15m0-36.15h-36.159m36.16 36.15v36.15m0-36.15h-36.16m36.16 36.15v36.15m0-36.15h-36.16m36.16 36.15v36.15m0-36.15h-36.16m36.16 36.15v36.15m0-36.15h-36.16m36.16 36.15v36.15m0-36.15h-36.16m36.16 36.15v36.15m0-36.15h-36.16m36.16 36.15v36.15m0-36.15h-36.16m36.16 36.15v36.15m0-36.15h-36.16m36.16 36.15v36.15m0-36.15h-36.16m36.16 36.15v36.15m0-36.15h-36.16m36.16 36.15V.8m0-36.15h-36.16M21.228.8v36.15m0-36.15h-36.16m36.16 36.15V73.1m0-36.15h-36.16m36.16 36.15v36.15m0-36.15h-36.16m36.16 36.15v36.15m0-36.15h-36.16m36.16 36.15v36.15m0-36.15h-36.16m36.16 36.15v36.15m0-36.15h-36.16m36.16 36.15v36.15m0-36.15h-36.16m36.16 36.15V290m0-36.15h-36.16M21.228 290h-36.16m0-723v36.15m0-36.15H-51.09m36.16 36.15v36.15m0-36.15h-36.16m36.16 36.15v36.15m0-36.15h-36.16m36.16 36.15v36.15m0-36.15h-36.16m36.16 36.15v36.15m0-36.15h-36.16m36.16 36.15v36.15m0-36.15h-36.16m36.16 36.15v36.15m0-36.15h-36.16m36.16 36.15v36.15m0-36.15h-36.16m36.16 36.15v36.15m0-36.15h-36.16m36.16 36.15v36.15m0-36.15h-36.16m36.16 36.15v36.15m0-36.15h-36.16m36.16 36.15V.8m0-36.15h-36.16M-14.93.8v36.15m0-36.15h-36.16m36.16 36.15V73.1m0-36.15h-36.16m36.16 36.15v36.15m0-36.15h-36.16m36.16 36.15v36.15m0-36.15h-36.16m36.16 36.15v36.15m0-36.15h-36.16m36.16 36.15v36.15m0-36.15h-36.16m36.16 36.15v36.15m0-36.15h-36.16m36.16 36.15V290m0-36.15h-36.16M-14.93 290h-36.16m0-723v36.15m0-36.15h-36.16m36.16 36.15v36.15m0-36.15h-36.16m36.16 36.15v36.15m0-36.15h-36.16m36.16 36.15v36.15m0-36.15h-36.16m36.16 36.15v36.15m0-36.15h-36.16m36.16 36.15v36.15m0-36.15h-36.16m36.16 36.15v36.15m0-36.15h-36.16m36.16 36.15v36.15m0-36.15h-36.16m36.16 36.15v36.15m0-36.15h-36.16m36.16 36.15v36.15m0-36.15h-36.16m36.16 36.15v36.15m0-36.15h-36.16m36.16 36.15V.8m0-36.15h-36.16M-51.09.8v36.15m0-36.15h-36.16m36.16 36.15V73.1m0-36.15h-36.16m36.16 36.15v36.15m0-36.15h-36.16m36.16 36.15v36.15m0-36.15h-36.16m36.16 36.15v36.15m0-36.15h-36.16m36.16 36.15v36.15m0-36.15h-36.16m36.16 36.15v36.15m0-36.15h-36.16m36.16 36.15V290m0-36.15h-36.16M-51.09 290h-36.16m0-723v36.15m0-36.15h-36.159m36.159 36.15v36.15m0-36.15h-36.159m36.159 36.15v36.15m0-36.15h-36.159m36.159 36.15v36.15m0-36.15h-36.159m36.159 36.15v36.15m0-36.15h-36.159m36.159 36.15v36.15m0-36.15h-36.159m36.159 36.15v36.15m0-36.15h-36.159m36.159 36.15v36.15m0-36.15h-36.159m36.159 36.15v36.15m0-36.15h-36.159m36.159 36.15v36.15m0-36.15h-36.159M-87.25-71.5v36.15m0-36.15h-36.159m36.159 36.15V.8m0-36.15h-36.159M-87.25.8v36.15m0-36.15h-36.159m36.159 36.15V73.1m0-36.15h-36.159M-87.25 73.1v36.15m0-36.15h-36.159m36.159 36.15v36.15m0-36.15h-36.159m36.159 36.15v36.15m0-36.15h-36.159m36.159 36.15v36.15m0-36.15h-36.159m36.159 36.15v36.15m0-36.15h-36.159m36.159 36.15V290m0-36.15h-36.159M-87.25 290h-36.159m0-723v36.15m0-36.15h-36.159m36.159 36.15v36.15m0-36.15h-36.159m36.159 36.15v36.15m0-36.15h-36.159m36.159 36.15v36.15m0-36.15h-36.159m36.159 36.15v36.15m0-36.15h-36.159m36.159 36.15v36.15m0-36.15h-36.159m36.159 36.15v36.15m0-36.15h-36.159m36.159 36.15v36.15m0-36.15h-36.159m36.159 36.15v36.15m0-36.15h-36.159m36.159 36.15v36.15m0-36.15h-36.159m36.159 36.15v36.15m0-36.15h-36.159m36.159 36.15V.8m0-36.15h-36.159M-123.409.8v36.15m0-36.15h-36.159m36.159 36.15V73.1m0-36.15h-36.159m36.159 36.15v36.15m0-36.15h-36.159m36.159 36.15v36.15m0-36.15h-36.159m36.159 36.15v36.15m0-36.15h-36.159m36.159 36.15v36.15m0-36.15h-36.159m36.159 36.15v36.15m0-36.15h-36.159m36.159 36.15V290m0-36.15h-36.159m36.159 36.15h-36.159m0-723v36.15m0-36.15h-36.159m36.159 36.15v36.15m0-36.15h-36.159m36.159 36.15v36.15m0-36.15h-36.159m36.159 36.15v36.15m0-36.15h-36.159m36.159 36.15v36.15m0-36.15h-36.159m36.159 36.15v36.15m0-36.15h-36.159m36.159 36.15v36.15m0-36.15h-36.159m36.159 36.15v36.15m0-36.15h-36.159m36.159 36.15v36.15m0-36.15h-36.159m36.159 36.15v36.15m0-36.15h-36.159m36.159 36.15v36.15m0-36.15h-36.159m36.159 36.15V.8m0-36.15h-36.159M-159.568.8v36.15m0-36.15h-36.159m36.159 36.15V73.1m0-36.15h-36.159m36.159 36.15v36.15m0-36.15h-36.159m36.159 36.15v36.15m0-36.15h-36.159m36.159 36.15v36.15m0-36.15h-36.159m36.159 36.15v36.15m0-36.15h-36.159m36.159 36.15v36.15m0-36.15h-36.159m36.159 36.15V290m0-36.15h-36.159m36.159 36.15h-36.159m0-723v36.15m0-36.15h-36.159m36.159 36.15v36.15m0-36.15h-36.159m36.159 36.15v36.15m0-36.15h-36.159m36.159 36.15v36.15m0-36.15h-36.159m36.159 36.15v36.15m0-36.15h-36.159m36.159 36.15v36.15m0-36.15h-36.159m36.159 36.15v36.15m0-36.15h-36.159m36.159 36.15v36.15m0-36.15h-36.159m36.159 36.15v36.15m0-36.15h-36.159m36.159 36.15v36.15m0-36.15h-36.159m36.159 36.15v36.15m0-36.15h-36.159m36.159 36.15V.8m0-36.15h-36.159M-195.727.8v36.15m0-36.15h-36.159m36.159 36.15V73.1m0-36.15h-36.159m36.159 36.15v36.15m0-36.15h-36.159m36.159 36.15v36.15m0-36.15h-36.159m36.159 36.15v36.15m0-36.15h-36.159m36.159 36.15v36.15m0-36.15h-36.159m36.159 36.15v36.15m0-36.15h-36.159m36.159 36.15V290m0-36.15h-36.159m36.159 36.15h-36.159m0-723v36.15m0-36.15h-36.16m36.16 36.15v36.15m0-36.15h-36.16m36.16 36.15v36.15m0-36.15h-36.16m36.16 36.15v36.15m0-36.15h-36.16m36.16 36.15v36.15m0-36.15h-36.16m36.16 36.15v36.15m0-36.15h-36.16m36.16 36.15v36.15m0-36.15h-36.16m36.16 36.15v36.15m0-36.15h-36.16m36.16 36.15v36.15m0-36.15h-36.16m36.16 36.15v36.15m0-36.15h-36.16m36.16 36.15v36.15m0-36.15h-36.16m36.16 36.15V.8m0-36.15h-36.16M-231.886.8v36.15m0-36.15h-36.16m36.16 36.15V73.1m0-36.15h-36.16m36.16 36.15v36.15m0-36.15h-36.159m36.159 36.15v36.15m0-36.15h-36.159m36.159 36.15v36.15m0-36.15h-36.159m36.159 36.15v36.15m0-36.15h-36.159m36.159 36.15v36.15m0-36.15h-36.159m36.159 36.15V290m0-36.15h-36.159m36.159 36.15h-36.159m-.001-723v36.15m0-36.15h-36.159m36.159 36.15v36.15m0-36.15h-36.159m36.159 36.15v36.15m0-36.15h-36.159m36.159 36.15v36.15m0-36.15h-36.159m36.159 36.15v36.15m0-36.15h-36.159m36.159 36.15v36.15m0-36.15h-36.159m36.159 36.15v36.15m0-36.15h-36.159m36.159 36.15v36.15m0-36.15h-36.159m36.159 36.15v36.15m0-36.15h-36.159m36.159 36.15v36.15m0-36.15h-36.159m36.159 36.15v36.15m0-36.15h-36.159m36.159 36.15V.8m0-36.15h-36.159M-268.046.8v36.15m0-36.15h-36.159m36.159 36.15.001 36.15m-.001-36.15h-36.159m36.16 36.15v36.15m0-36.15h-36.16m36.16 36.15v36.15m0-36.15h-36.16m36.16 36.15v36.15m0-36.15h-36.16m36.16 36.15v36.15m0-36.15h-36.16m36.16 36.15v36.15m0-36.15h-36.16m36.16 36.15V290m0-36.15h-36.16m36.16 36.15h-36.16m0-723v36.15m0-36.15h-36.159m36.159 36.15v36.15m0-36.15h-36.159m36.159 36.15v36.15m0-36.15h-36.159m36.159 36.15v36.15m0-36.15h-36.159m36.159 36.15v36.15m0-36.15h-36.159m36.159 36.15v36.15m0-36.15h-36.159m36.159 36.15v36.15m0-36.15h-36.159m36.159 36.15v36.15m0-36.15h-36.159m36.159 36.15v36.15m0-36.15h-36.159m36.159 36.15v36.15m0-36.15h-36.159m36.159 36.15v36.15m0-36.15h-36.159m36.159 36.15V.8m0-36.15h-36.159M-304.205.8v36.15m0-36.15h-36.159m36.159 36.15V73.1m0-36.15h-36.159m36.159 36.15v36.15m0-36.15h-36.159m36.159 36.15v36.15m0-36.15h-36.159m36.159 36.15v36.15m0-36.15h-36.159m36.159 36.15v36.15m0-36.15h-36.159m36.159 36.15v36.15m0-36.15h-36.159m36.159 36.15V290m0-36.15h-36.159m36.159 36.15h-36.159m0-723v36.15m0-36.15h-36.159m36.159 36.15v36.15m0-36.15h-36.159m36.159 36.15v36.15m0-36.15h-36.159m36.159 36.15v36.15m0-36.15h-36.159m36.159 36.15v36.15m0-36.15h-36.159m36.159 36.15v36.15m0-36.15h-36.159m36.159 36.15v36.15m0-36.15h-36.159m36.159 36.15v36.15m0-36.15h-36.159m36.159 36.15v36.15m0-36.15h-36.159m36.159 36.15v36.15m0-36.15h-36.159m36.159 36.15v36.15m0-36.15h-36.159m36.159 36.15V.8m0-36.15h-36.159M-340.364.8v36.15m0-36.15h-36.159m36.159 36.15V73.1m0-36.15h-36.159m36.159 36.15v36.15m0-36.15h-36.159m36.159 36.15v36.15m0-36.15h-36.159m36.159 36.15v36.15m0-36.15h-36.159m36.159 36.15v36.15m0-36.15h-36.159m36.159 36.15v36.15m0-36.15h-36.159m36.159 36.15V290m0-36.15h-36.159m36.159 36.15h-36.159m0-723v36.15m0-36.15h-36.159m36.159 36.15v36.15m0-36.15h-36.159m36.159 36.15v36.15m0-36.15h-36.159m36.159 36.15v36.15m0-36.15h-36.159m36.159 36.15v36.15m0-36.15h-36.159m36.159 36.15v36.15m0-36.15h-36.159m36.159 36.15v36.15m0-36.15h-36.159m36.159 36.15v36.15m0-36.15h-36.159m36.159 36.15v36.15m0-36.15h-36.159m36.159 36.15v36.15m0-36.15h-36.159m36.159 36.15v36.15m0-36.15h-36.159m36.159 36.15V.8m0-36.15h-36.159M-376.523.8v36.15m0-36.15h-36.159m36.159 36.15V73.1m0-36.15h-36.159m36.159 36.15v36.15m0-36.15h-36.159m36.159 36.15v36.15m0-36.15h-36.159m36.159 36.15v36.15m0-36.15h-36.159m36.159 36.15v36.15m0-36.15h-36.159m36.159 36.15v36.15m0-36.15h-36.159m36.159 36.15V290m0-36.15h-36.159m36.159 36.15h-36.159m0-723v36.15m0-36.15h-36.159m36.159 36.15v36.15m0-36.15h-36.159m36.159 36.15v36.15m0-36.15h-36.159m36.159 36.15v36.15m0-36.15h-36.159m36.159 36.15v36.15m0-36.15h-36.159m36.159 36.15v36.15m0-36.15h-36.159m36.159 36.15v36.15m0-36.15h-36.159m36.159 36.15v36.15m0-36.15h-36.159m36.159 36.15v36.15m0-36.15h-36.159m36.159 36.15v36.15m0-36.15h-36.159m36.159 36.15v36.15m0-36.15h-36.159m36.159 36.15V.8m0-36.15h-36.159M-412.682.8v36.15m0-36.15h-36.159m36.159 36.15V73.1m0-36.15h-36.159m36.159 36.15v36.15m0-36.15h-36.159m36.159 36.15v36.15m0-36.15h-36.159m36.159 36.15v36.15m0-36.15h-36.159m36.159 36.15v36.15m0-36.15h-36.159m36.159 36.15v36.15m0-36.15h-36.159m36.159 36.15V290m0-36.15h-36.159m36.159 36.15h-36.159m0-723v36.15m0-36.15H-485v36.15m36.159 0v36.15m0-36.15H-485m36.159 36.15v36.15m0-36.15H-485m36.159 36.15v36.15m0-36.15H-485m36.159 36.15v36.15m0-36.15H-485m36.159 36.15v36.15m0-36.15H-485m36.159 36.15v36.15m0-36.15H-485m36.159 36.15v36.15m0-36.15H-485m36.159 36.15v36.15m0-36.15H-485m36.159 36.15v36.15m0-36.15H-485m36.159 36.15v36.15m0-36.15H-485m36.159 36.15V.8m0-36.15H-485M-448.841.8v36.15m0-36.15H-485m36.159 36.15V73.1m0-36.15H-485m36.159 36.15v36.15m0-36.15H-485m36.159 36.15v36.15m0-36.15H-485m36.159 36.15v36.15m0-36.15H-485m36.159 36.15v36.15m0-36.15H-485m36.159 36.15v36.15m0-36.15H-485m36.159 36.15V290m0-36.15H-485m36.159 36.15H-485v-36.15m0-650.7v36.15m0 0v36.15m0 0v36.15m0 0v36.15m0 0v36.15m0 0v36.15m0 0v36.15m0 0v36.15m0 0v36.15m0 0v36.15m0 0V.8m0 0v36.15m0 0V73.1m0 0v36.15m0 0v36.15m0 0v36.15m0 0v36.15m0 0v36.15"/><defs><radialGradient id="a" cx="0" cy="0" r="1" gradientTransform="rotate(133.548 427.064 -24.55)scale(795.397 1413.05)" gradientUnits="userSpaceOnUse"><stop offset=".02" stop-color="#050505"/><stop offset="1" stop-color="#F8F6F2" stop-opacity="0"/></radialGradient></defs></svg>